<?xml version="1.0" encoding="UTF-8"?> <svg xmlns="http://www.w3.org/2000/svg" width="62.846" height="130.117" viewBox="0 0 62.846 130.117"><path id="absolute_retancle" d="M39.311,187.655A2.655,2.655,0,1,1,36.655,185,2.655,2.655,0,0,1,39.311,187.655ZM49.048,185a2.655,2.655,0,1,0,2.655,2.655A2.655,2.655,0,0,0,49.048,185Zm12.392,0a2.655,2.655,0,1,0,2.655,2.655A2.655,2.655,0,0,0,61.44,185Zm12.392,0a2.655,2.655,0,1,0,2.655,2.655A2.655,2.655,0,0,0,73.832,185Zm12.392,0a2.655,2.655,0,1,0,2.655,2.655A2.655,2.655,0,0,0,86.224,185Zm12.392,0a2.655,2.655,0,1,0,2.655,2.655A2.655,2.655,0,0,0,98.616,185Zm12.392,0a2.655,2.655,0,1,0,2.655,2.655A2.655,2.655,0,0,0,111.008,185Zm12.392,0a2.655,2.655,0,1,0,2.655,2.655A2.655,2.655,0,0,0,123.4,185Zm12.392,0a2.655,2.655,0,1,0,2.655,2.655A2.655,2.655,0,0,0,135.792,185Zm12.392,0a2.655,2.655,0,1,0,2.655,2.655A2.655,2.655,0,0,0,148.184,185ZM49.048,196.507a2.655,2.655,0,1,0,2.655,2.655A2.655,2.655,0,0,0,49.048,196.507Zm12.392,0a2.655,2.655,0,1,0,2.655,2.655A2.655,2.655,0,0,0,61.44,196.507Zm12.392,0a2.655,2.655,0,1,0,2.655,2.655A2.655,2.655,0,0,0,73.832,196.507Zm12.392,0a2.655,2.655,0,1,0,2.655,2.655A2.655,2.655,0,0,0,86.224,196.507Zm12.392,0a2.655,2.655,0,1,0,2.655,2.655A2.655,2.655,0,0,0,98.616,196.507Zm12.392,0a2.655,2.655,0,1,0,2.655,2.655A2.655,2.655,0,0,0,111.008,196.507Zm12.392,0a2.655,2.655,0,1,0,2.655,2.655A2.655,2.655,0,0,0,123.4,196.507Zm12.392,0a2.655,2.655,0,1,0,2.655,2.655A2.655,2.655,0,0,0,135.792,196.507Zm12.392,0a2.655,2.655,0,1,0,2.655,2.655A2.655,2.655,0,0,0,148.184,196.507ZM61.44,208.014a2.655,2.655,0,1,0,2.655,2.655A2.655,2.655,0,0,0,61.44,208.014Zm12.392,0a2.655,2.655,0,1,0,2.655,2.655A2.655,2.655,0,0,0,73.832,208.014Zm12.392,0a2.655,2.655,0,1,0,2.655,2.655A2.655,2.655,0,0,0,86.224,208.014Zm12.392,0a2.655,2.655,0,1,0,2.655,2.655A2.655,2.655,0,0,0,98.616,208.014Zm12.392,0a2.655,2.655,0,1,0,2.655,2.655A2.655,2.655,0,0,0,111.008,208.014Zm12.392,0a2.655,2.655,0,1,0,2.655,2.655A2.655,2.655,0,0,0,123.4,208.014Zm12.392,0a2.655,2.655,0,1,0,2.655,2.655A2.655,2.655,0,0,0,135.792,208.014ZM73.832,219.521a2.655,2.655,0,1,0,2.655,2.655A2.655,2.655,0,0,0,73.832,219.521Zm12.392,0a2.655,2.655,0,1,0,2.655,2.655A2.655,2.655,0,0,0,86.224,219.521Zm12.392,0a2.655,2.655,0,1,0,2.655,2.655A2.655,2.655,0,0,0,98.616,219.521Zm12.392,0a2.655,2.655,0,1,0,2.655,2.655A2.655,2.655,0,0,0,111.008,219.521Zm12.392,0a2.655,2.655,0,1,0,2.655,2.655A2.655,2.655,0,0,0,123.4,219.521ZM86.224,231.028a2.655,2.655,0,1,0,2.655,2.655A2.655,2.655,0,0,0,86.224,231.028Zm12.392,0a2.655,2.655,0,1,0,2.655,2.655A2.655,2.655,0,0,0,98.616,231.028Zm12.392,0a2.655,2.655,0,1,0,2.655,2.655A2.655,2.655,0,0,0,111.008,231.028ZM98.616,242.535a2.655,2.655,0,1,0,2.655,2.655A2.655,2.655,0,0,0,98.616,242.535ZM161.462,185a2.655,2.655,0,1,0,2.655,2.655A2.655,2.655,0,0,0,161.462,185Z" transform="translate(-185 164.117) rotate(-90)" fill="#1d5145" opacity="0.1"></path></svg> 