<?xml version="1.0" encoding="UTF-8"?> <svg xmlns="http://www.w3.org/2000/svg" width="132" height="123" viewBox="0 0 132 123"><path id="absolute" d="M40,33a3,3,0,1,1-3-3A3,3,0,0,1,40,33Zm11-3a3,3,0,1,0,3,3A3,3,0,0,0,51,30Zm14,0a3,3,0,1,0,3,3A3,3,0,0,0,65,30Zm14,0a3,3,0,1,0,3,3A3,3,0,0,0,79,30Zm14,0a3,3,0,1,0,3,3A3,3,0,0,0,93,30Zm14,0a3,3,0,1,0,3,3A3,3,0,0,0,107,30Zm14,0a3,3,0,1,0,3,3A3,3,0,0,0,121,30Zm14,0a3,3,0,1,0,3,3A3,3,0,0,0,135,30Zm14,0a3,3,0,1,0,3,3A3,3,0,0,0,149,30Zm14,0a3,3,0,1,0,3,3A3,3,0,0,0,163,30ZM37,43a3,3,0,1,0,3,3A3,3,0,0,0,37,43Zm14,0a3,3,0,1,0,3,3A3,3,0,0,0,51,43Zm14,0a3,3,0,1,0,3,3A3,3,0,0,0,65,43Zm14,0a3,3,0,1,0,3,3A3,3,0,0,0,79,43Zm14,0a3,3,0,1,0,3,3A3,3,0,0,0,93,43Zm14,0a3,3,0,1,0,3,3A3,3,0,0,0,107,43Zm14,0a3,3,0,1,0,3,3A3,3,0,0,0,121,43Zm14,0a3,3,0,1,0,3,3A3,3,0,0,0,135,43Zm14,0a3,3,0,1,0,3,3A3,3,0,0,0,149,43Zm14,0a3,3,0,1,0,3,3A3,3,0,0,0,163,43ZM37,56a3,3,0,1,0,3,3A3,3,0,0,0,37,56Zm14,0a3,3,0,1,0,3,3A3,3,0,0,0,51,56Zm14,0a3,3,0,1,0,3,3A3,3,0,0,0,65,56Zm14,0a3,3,0,1,0,3,3A3,3,0,0,0,79,56Zm14,0a3,3,0,1,0,3,3A3,3,0,0,0,93,56Zm14,0a3,3,0,1,0,3,3A3,3,0,0,0,107,56Zm14,0a3,3,0,1,0,3,3A3,3,0,0,0,121,56Zm14,0a3,3,0,1,0,3,3A3,3,0,0,0,135,56Zm14,0a3,3,0,1,0,3,3A3,3,0,0,0,149,56Zm14,0a3,3,0,1,0,3,3A3,3,0,0,0,163,56ZM37,69a3,3,0,1,0,3,3A3,3,0,0,0,37,69Zm14,0a3,3,0,1,0,3,3A3,3,0,0,0,51,69Zm14,0a3,3,0,1,0,3,3A3,3,0,0,0,65,69Zm14,0a3,3,0,1,0,3,3A3,3,0,0,0,79,69Zm14,0a3,3,0,1,0,3,3A3,3,0,0,0,93,69Zm14,0a3,3,0,1,0,3,3A3,3,0,0,0,107,69Zm14,0a3,3,0,1,0,3,3A3,3,0,0,0,121,69Zm14,0a3,3,0,1,0,3,3A3,3,0,0,0,135,69Zm14,0a3,3,0,1,0,3,3A3,3,0,0,0,149,69Zm14,0a3,3,0,1,0,3,3A3,3,0,0,0,163,69ZM37,82a3,3,0,1,0,3,3A3,3,0,0,0,37,82Zm14,0a3,3,0,1,0,3,3A3,3,0,0,0,51,82Zm14,0a3,3,0,1,0,3,3A3,3,0,0,0,65,82Zm14,0a3,3,0,1,0,3,3A3,3,0,0,0,79,82Zm14,0a3,3,0,1,0,3,3A3,3,0,0,0,93,82Zm14,0a3,3,0,1,0,3,3A3,3,0,0,0,107,82Zm14,0a3,3,0,1,0,3,3A3,3,0,0,0,121,82Zm14,0a3,3,0,1,0,3,3A3,3,0,0,0,135,82Zm14,0a3,3,0,1,0,3,3A3,3,0,0,0,149,82Zm14,0a3,3,0,1,0,3,3A3,3,0,0,0,163,82ZM37,95a3,3,0,1,0,3,3A3,3,0,0,0,37,95Zm14,0a3,3,0,1,0,3,3A3,3,0,0,0,51,95Zm14,0a3,3,0,1,0,3,3A3,3,0,0,0,65,95Zm14,0a3,3,0,1,0,3,3A3,3,0,0,0,79,95Zm14,0a3,3,0,1,0,3,3A3,3,0,0,0,93,95Zm14,0a3,3,0,1,0,3,3A3,3,0,0,0,107,95Zm14,0a3,3,0,1,0,3,3A3,3,0,0,0,121,95Zm14,0a3,3,0,1,0,3,3A3,3,0,0,0,135,95Zm14,0a3,3,0,1,0,3,3A3,3,0,0,0,149,95Zm14,0a3,3,0,1,0,3,3A3,3,0,0,0,163,95ZM37,108a3,3,0,1,0,3,3A3,3,0,0,0,37,108Zm14,0a3,3,0,1,0,3,3A3,3,0,0,0,51,108Zm14,0a3,3,0,1,0,3,3A3,3,0,0,0,65,108Zm14,0a3,3,0,1,0,3,3A3,3,0,0,0,79,108Zm14,0a3,3,0,1,0,3,3A3,3,0,0,0,93,108Zm14,0a3,3,0,1,0,3,3A3,3,0,0,0,107,108Zm14,0a3,3,0,1,0,3,3A3,3,0,0,0,121,108Zm14,0a3,3,0,1,0,3,3A3,3,0,0,0,135,108Zm14,0a3,3,0,1,0,3,3A3,3,0,0,0,149,108Zm14,0a3,3,0,1,0,3,3A3,3,0,0,0,163,108ZM37,121a3,3,0,1,0,3,3A3,3,0,0,0,37,121Zm14,0a3,3,0,1,0,3,3A3,3,0,0,0,51,121Zm14,0a3,3,0,1,0,3,3A3,3,0,0,0,65,121Zm14,0a3,3,0,1,0,3,3A3,3,0,0,0,79,121Zm14,0a3,3,0,1,0,3,3A3,3,0,0,0,93,121Zm14,0a3,3,0,1,0,3,3A3,3,0,0,0,107,121Zm14,0a3,3,0,1,0,3,3A3,3,0,0,0,121,121Zm14,0a3,3,0,1,0,3,3A3,3,0,0,0,135,121Zm14,0a3,3,0,1,0,3,3A3,3,0,0,0,149,121Zm14,0a3,3,0,1,0,3,3A3,3,0,0,0,163,121ZM37,134a3,3,0,1,0,3,3A3,3,0,0,0,37,134Zm14,0a3,3,0,1,0,3,3A3,3,0,0,0,51,134Zm14,0a3,3,0,1,0,3,3A3,3,0,0,0,65,134Zm14,0a3,3,0,1,0,3,3A3,3,0,0,0,79,134Zm14,0a3,3,0,1,0,3,3A3,3,0,0,0,93,134Zm14,0a3,3,0,1,0,3,3A3,3,0,0,0,107,134Zm14,0a3,3,0,1,0,3,3A3,3,0,0,0,121,134Zm14,0a3,3,0,1,0,3,3A3,3,0,0,0,135,134Zm14,0a3,3,0,1,0,3,3A3,3,0,0,0,149,134Zm14,0a3,3,0,1,0,3,3A3,3,0,0,0,163,134ZM37,147a3,3,0,1,0,3,3A3,3,0,0,0,37,147Zm14,0a3,3,0,1,0,3,3A3,3,0,0,0,51,147Zm14,0a3,3,0,1,0,3,3A3,3,0,0,0,65,147Zm14,0a3,3,0,1,0,3,3A3,3,0,0,0,79,147Zm14,0a3,3,0,1,0,3,3A3,3,0,0,0,93,147Zm14,0a3,3,0,1,0,3,3A3,3,0,0,0,107,147Zm14,0a3,3,0,1,0,3,3A3,3,0,0,0,121,147Zm14,0a3,3,0,1,0,3,3A3,3,0,0,0,135,147Zm14,0a3,3,0,1,0,3,3A3,3,0,0,0,149,147Zm14,0a3,3,0,1,0,3,3A3,3,0,0,0,163,147Z" transform="translate(-34 -30)" fill="#1d5145" opacity="0.1"></path></svg> 