<?xml version="1.0" encoding="UTF-8"?> <!-- Generator: Adobe Illustrator 22.0.1, SVG Export Plug-In . SVG Version: 6.00 Build 0) --> <svg xmlns="http://www.w3.org/2000/svg" xmlns:xlink="http://www.w3.org/1999/xlink" id="Layer_1" x="0px" y="0px" viewBox="0 0 10.5 10.5" style="enable-background:new 0 0 10.5 10.5;" xml:space="preserve"> <style type="text/css"> .st0{fill:#DDFFB7;} </style> <path id="Path_24" class="st0" d="M5.2,0.2c-2.8,0-5,2.2-5,5s2.2,5,5,5s5-2.2,5-5l0,0C10.2,2.5,8,0.2,5.2,0.2z M8.1,4.4L5,7.5 c-0.3,0.3-0.7,0.3-1,0L2.4,5.9c-0.3-0.3-0.3-0.7-0.1-1s0.7-0.3,1-0.1c0,0,0,0,0.1,0.1L4.5,6l2.6-2.6c0.3-0.3,0.7-0.2,1,0.1 C8.4,3.7,8.4,4.1,8.1,4.4L8.1,4.4z"></path> </svg> 