<?xml version="1.0" encoding="UTF-8"?> <!-- Generator: Adobe Illustrator 22.0.1, SVG Export Plug-In . SVG Version: 6.00 Build 0) --> <svg xmlns="http://www.w3.org/2000/svg" xmlns:xlink="http://www.w3.org/1999/xlink" id="Layer_1" x="0px" y="0px" viewBox="0 0 32 32" style="enable-background:new 0 0 32 32;" xml:space="preserve"> <style type="text/css"> .st0{fill:#FFFFFF;} </style> <title>icon_contact</title> <g id="Layer_2_1_"> <g id="Layer_1-2"> <g id="button_lien_he"> <g id="icon_phone"> <path class="st0" d="M27.3,4.7C21.1-1.6,11-1.7,4.7,4.5c-6.1,6-6.4,15.7-0.7,22.1l0.2,0.1c-0.6,1.6-1.8,2.9-3.3,3.7 c-0.3,0.2-0.4,0.5-0.3,0.8c0.1,0.2,0.3,0.3,0.5,0.3c2.4,0.3,4.9-0.3,6.8-1.9l0,0c7.6,4.5,17.4,1.9,21.9-5.7 C33.4,17.8,32.4,9.8,27.3,4.7z M21.3,22.8c-0.4,0.4-0.7,0.7-1.1,1.1c-0.5,0.5-1.1,0.8-1.8,0.7c-1-0.1-2-0.4-2.8-0.8 c-2-1-3.7-2.3-5.1-4c-1.1-1.2-1.9-2.6-2.5-4.2c-0.3-0.7-0.5-1.5-0.4-2.3c0-0.5,0.2-0.9,0.6-1.3c0.4-0.4,0.8-0.8,1.2-1.2 c0.4-0.5,1.1-0.5,1.6-0.1c0,0,0.1,0.1,0.1,0.1l0.9,0.9l0.9,0.9c0.5,0.4,0.5,1.1,0.1,1.6c0,0-0.1,0.1-0.1,0.1 c-0.4,0.4-0.8,0.8-1.1,1.1c-0.1,0.1-0.1,0.2-0.1,0.3c0.2,0.6,0.6,1.2,1,1.7c0.8,1,1.8,1.9,2.9,2.6c0.2,0.1,0.5,0.3,0.8,0.4 c0.1,0.1,0.2,0,0.3-0.1c0.4-0.4,0.8-0.8,1.2-1.2c0.4-0.5,1.1-0.5,1.5-0.1c0,0,0.1,0.1,0.1,0.1c0.6,0.6,1.3,1.2,1.9,1.9 c0.5,0.4,0.5,1.1,0.1,1.5C21.3,22.8,21.3,22.8,21.3,22.8L21.3,22.8z M15.4,12.5l0.2-1.4c2.7,0.4,4.9,2.5,5.4,5.2l-1.4,0.3 C19.2,14.5,17.5,12.9,15.4,12.5L15.4,12.5z M23.3,16.3c-0.7-3.9-3.8-6.9-7.7-7.5l0.2-1.4c4.5,0.6,8.1,4.1,8.9,8.6L23.3,16.3z"></path> </g> </g> </g> </g> </svg> 