<?xml version="1.0" encoding="UTF-8"?> <!-- Generator: Adobe Illustrator 22.0.1, SVG Export Plug-In . SVG Version: 6.00 Build 0) --> <svg xmlns="http://www.w3.org/2000/svg" xmlns:xlink="http://www.w3.org/1999/xlink" id="Layer_1" x="0px" y="0px" viewBox="0 0 32.4 32.4" style="enable-background:new 0 0 32.4 32.4;" xml:space="preserve"> <style type="text/css"> .st0{fill:url(#SVGID_1_);} </style> <title>icon_contact</title> <linearGradient id="SVGID_1_" gradientUnits="userSpaceOnUse" x1="-0.9132" y1="1.1748" x2="28.2118" y2="34.0497"> <stop offset="0" style="stop-color:#00AEFF"></stop> <stop offset="1" style="stop-color:#0055FF"></stop> </linearGradient> <path class="st0" d="M15.2,15.3c-0.3-0.4-0.7-0.6-1.1-0.6c-0.5,0-0.9,0.2-1.1,0.6c-0.3,0.4-0.4,0.8-0.4,1.3c0,0.5,0.1,1,0.4,1.3 c0.3,0.4,0.7,0.6,1.1,0.6c0.5,0,0.8-0.2,1.1-0.6c0.3-0.4,0.4-0.8,0.4-1.3C15.6,16.1,15.5,15.6,15.2,15.3z M15.2,15.3 c-0.3-0.4-0.7-0.6-1.1-0.6c-0.5,0-0.9,0.2-1.1,0.6c-0.3,0.4-0.4,0.8-0.4,1.3c0,0.5,0.1,1,0.4,1.3c0.3,0.4,0.7,0.6,1.1,0.6 c0.5,0,0.8-0.2,1.1-0.6c0.3-0.4,0.4-0.8,0.4-1.3C15.6,16.1,15.5,15.6,15.2,15.3z M27.5,4.9C21.3-1.4,11.2-1.5,4.9,4.7 c-6.1,6-6.4,15.7-0.7,22.1l0.2,0.1c-0.6,1.6-1.8,2.9-3.3,3.7c-0.3,0.1-0.4,0.5-0.3,0.8c0.1,0.2,0.3,0.3,0.5,0.3 c2.4,0.3,4.9-0.3,6.8-1.9c7.6,4.5,17.4,1.9,21.9-5.7C33.6,18,32.6,10,27.5,4.9z M9.2,20.1H4.8c-0.5,0-0.8-0.2-0.8-0.7 c0-0.2,0.1-0.4,0.2-0.5l3-4.2H5c-0.5,0-0.9-0.3-0.9-0.8c0-0.5,0.4-0.8,0.9-0.8h4.3c0.1,0,0.3,0,0.4,0.1c0.2,0.1,0.3,0.3,0.3,0.5 c0,0.3,0,0.4-0.2,0.6l-3,4.2h2.5c0.5,0,0.8,0.3,0.8,0.8C10.1,19.8,9.7,20.1,9.2,20.1z M17.5,18.9c0,0.4,0,0.6-0.1,0.8 c-0.1,0.3-0.4,0.4-0.8,0.4c-0.5,0-0.8-0.3-0.9-0.8c-0.5,0.6-1.1,0.9-1.8,0.9c-0.9,0-1.6-0.3-2.2-1c-0.6-0.7-0.9-1.6-0.9-2.6 c0-1,0.3-1.9,0.9-2.6c0.6-0.7,1.3-1.1,2.2-1.1c0.8,0,1.4,0.3,1.8,0.9c0.1-0.5,0.4-0.8,0.9-0.8c0.4,0,0.7,0.2,0.8,0.4 c0.1,0.2,0.1,0.4,0.1,0.8V18.9z M20.6,19.1c0,0.6-0.4,1-1,1c-0.6,0-1-0.4-1-1V11c0-0.6,0.4-1,1-1c0.6,0,1,0.4,1,1V19.1z M27.3,19.1 c-0.7,0.7-1.5,1.1-2.5,1.1c-1,0-1.8-0.3-2.4-1c-0.6-0.7-0.9-1.6-0.9-2.6c0-1,0.3-1.8,1-2.6c0.6-0.7,1.5-1.1,2.4-1.1 c1,0,1.8,0.4,2.5,1.1c0.6,0.7,1,1.6,1,2.5C28.2,17.6,27.9,18.4,27.3,19.1z M24.8,14.7c-0.5,0-0.8,0.2-1.1,0.6 c-0.3,0.4-0.4,0.8-0.4,1.3c0,0.5,0.1,1,0.4,1.3c0.3,0.4,0.7,0.6,1.1,0.6c0.5,0,0.9-0.2,1.1-0.6c0.3-0.4,0.4-0.8,0.4-1.3 c0-0.5-0.1-0.9-0.3-1.3C25.7,14.9,25.3,14.7,24.8,14.7z M14.1,14.7c-0.5,0-0.9,0.2-1.1,0.6c-0.3,0.4-0.4,0.8-0.4,1.3 c0,0.5,0.1,1,0.4,1.3c0.3,0.4,0.7,0.6,1.1,0.6c0.5,0,0.8-0.2,1.1-0.6c0.3-0.4,0.4-0.8,0.4-1.3c0-0.5-0.1-0.9-0.3-1.3 C14.9,14.9,14.6,14.7,14.1,14.7z M15.2,15.3c-0.3-0.4-0.7-0.6-1.1-0.6c-0.5,0-0.9,0.2-1.1,0.6c-0.3,0.4-0.4,0.8-0.4,1.3 c0,0.5,0.1,1,0.4,1.3c0.3,0.4,0.7,0.6,1.1,0.6c0.5,0,0.8-0.2,1.1-0.6c0.3-0.4,0.4-0.8,0.4-1.3C15.6,16.1,15.5,15.6,15.2,15.3z M15.2,15.3c-0.3-0.4-0.7-0.6-1.1-0.6c-0.5,0-0.9,0.2-1.1,0.6c-0.3,0.4-0.4,0.8-0.4,1.3c0,0.5,0.1,1,0.4,1.3 c0.3,0.4,0.7,0.6,1.1,0.6c0.5,0,0.8-0.2,1.1-0.6c0.3-0.4,0.4-0.8,0.4-1.3C15.6,16.1,15.5,15.6,15.2,15.3z"></path> </svg> 