<?xml version="1.0" encoding="UTF-8"?> <!-- Generator: Adobe Illustrator 22.0.1, SVG Export Plug-In . SVG Version: 6.00 Build 0) --> <svg xmlns="http://www.w3.org/2000/svg" xmlns:xlink="http://www.w3.org/1999/xlink" id="Layer_1" x="0px" y="0px" viewBox="0 0 98.9 70.5" style="enable-background:new 0 0 98.9 70.5;" xml:space="preserve"> <style type="text/css"> .st0{opacity:0.1;fill:#778385;} </style> <title>quote</title> <path class="st0" d="M29.1,32.1c-2-0.6-4-0.8-6-0.9c-2.6,0-5.2,0.5-7.6,1.5C17.4,26,22,14.4,31.1,13.1c0.8-0.1,1.5-0.7,1.8-1.5 l2-6.9c0.2-0.6,0.1-1.2-0.3-1.7c-0.4-0.5-0.9-0.9-1.5-0.9C32.4,2,31.7,2,31.1,2C20.1,2,9.3,13,4.8,28.8C2.1,38,1.3,51.9,7.9,60.7 c3.7,4.9,9.1,7.5,16,7.8H24c8.5,0.1,15.9-5.4,18.4-13.5c1.4-4.7,0.7-9.8-1.8-14.1C38.1,36.6,34,33.4,29.1,32.1z"></path> <path class="st0" d="M93.7,40.9c-2.5-4.3-6.7-7.5-11.5-8.7c-2-0.6-4-0.8-6-0.9c-2.6,0-5.2,0.5-7.6,1.5C70.5,26,75,14.4,84.1,13.1 c0.8-0.1,1.5-0.7,1.8-1.5l2-6.9c0.2-0.6,0.1-1.2-0.3-1.7c-0.4-0.5-0.9-0.9-1.5-0.9C85.4,2,84.7,2,84.1,2C73.1,2,62.3,13,57.8,28.8 c-2.7,9.2-3.5,23.2,3.1,31.9c3.7,4.9,9.1,7.5,16,7.8H77c8.5,0.1,16-5.4,18.4-13.5C96.8,50.2,96.2,45.1,93.7,40.9z"></path> </svg> 