<?xml version="1.0" encoding="UTF-8"?> <svg xmlns="http://www.w3.org/2000/svg" width="32" height="32" viewBox="0 0 32 32"><g id="social_facebook" transform="translate(-44.061 -614)"><circle id="Ellipse_3" data-name="Ellipse 3" cx="16" cy="16" r="16" transform="translate(44.062 614)" fill="#4158a5" opacity="0.1"></circle><g id="Group_3" data-name="Group 3"><g id="Group_2" data-name="Group 2"><path id="Path_1" data-name="Path 1" d="M64.311,620.565l-2.2,0a3.872,3.872,0,0,0-4.077,4.184v1.929H55.813a.347.347,0,0,0-.347.347v2.795a.347.347,0,0,0,.347.347h2.216v7.052a.346.346,0,0,0,.347.346h2.892a.346.346,0,0,0,.346-.346v-7.052h2.592a.347.347,0,0,0,.347-.347v-2.795a.348.348,0,0,0-.347-.347H61.614v-1.635c0-.786.188-1.185,1.212-1.185h1.485a.347.347,0,0,0,.346-.347v-2.6A.346.346,0,0,0,64.311,620.565Z" fill="#4158a5"></path></g></g></g></svg> 