<?xml version="1.0" encoding="UTF-8"?> <svg xmlns="http://www.w3.org/2000/svg" id="Group_67" data-name="Group 67" width="62.059" height="5.258" viewBox="0 0 62.059 5.258"><path id="Path_143" data-name="Path 143" d="M53.621,84.08a5.9,5.9,0,0,0-4.377,1.961,4.09,4.09,0,0,1-6.308,0,5.866,5.866,0,0,0-8.754,0,4.09,4.09,0,0,1-6.307,0,5.865,5.865,0,0,0-8.754,0,4.089,4.089,0,0,1-6.307,0,5.866,5.866,0,0,0-8.754,0A4.167,4.167,0,0,1,.906,87.526a.906.906,0,1,0,0,1.812,5.9,5.9,0,0,0,4.377-1.961,4.09,4.09,0,0,1,6.307,0,5.865,5.865,0,0,0,8.754,0,4.09,4.09,0,0,1,6.307,0,5.866,5.866,0,0,0,8.754,0,4.09,4.09,0,0,1,6.307,0,5.866,5.866,0,0,0,8.755,0,4.091,4.091,0,0,1,6.308,0,5.9,5.9,0,0,0,4.378,1.961.906.906,0,1,0,0-1.812A4.169,4.169,0,0,1,58,86.041,5.9,5.9,0,0,0,53.621,84.08Z" transform="translate(0 -84.08)" fill="#f70"></path></svg> 